<svg width="1200" height="300" viewBox="0 0 1200 300" fill="none" xmlns="http://www.w3.org/2000/svg">
  <style>
    .tw { animation: tw 3s ease-in-out infinite; }
    @keyframes tw { 0%,100% { opacity: 0.3; } 50% { opacity: 1; } }
    .pulse { animation: pulse 1.6s ease-in-out infinite; }
    @keyframes pulse { 0%,100% { opacity: 1; } 50% { opacity: 0.35; } }
  </style>
  <rect width="1200" height="300" rx="16" fill="#0d1117"/>
  <rect x="0.5" y="0.5" width="1199" height="299" rx="15.5" stroke="#30363d"/>
  <text x="64" y="144" font-family="-apple-system, BlinkMacSystemFont, 'Segoe UI', 'Noto Sans KR', sans-serif" font-size="54" font-weight="700" fill="#e6edf3">심완우</text>
  <text x="64" y="188" font-family="-apple-system, BlinkMacSystemFont, 'Segoe UI', 'Noto Sans KR', sans-serif" font-size="24" fill="#8b949e">Butler-SIM · Full-Stack Developer · AI Products</text>
  <circle cx="70" cy="228" r="5" fill="#39d353" class="pulse"/>
  <text x="84" y="234" font-family="-apple-system, BlinkMacSystemFont, 'Segoe UI', 'Noto Sans KR', sans-serif" font-size="17" fill="#39d353">결제가 붙은 AI 서비스를 만들어 운영합니다 — sajusaju.co.kr</text>
  <rect x="806" y="80" width="16" height="16" rx="3.5" fill="#006d32"/>
  <rect x="806" y="100" width="16" height="16" rx="3.5" fill="#161b22"/>
  <rect x="806" y="120" width="16" height="16" rx="3.5" fill="#161b22"/>
  <rect x="806" y="140" width="16" height="16" rx="3.5" fill="#161b22"/>
  <rect x="806" y="160" width="16" height="16" rx="3.5" fill="#26a641"/>
  <rect x="806" y="180" width="16" height="16" rx="3.5" fill="#39d353" class="tw" style="animation-delay:1.1s"/>
  <rect x="806" y="200" width="16" height="16" rx="3.5" fill="#161b22"/>
  <rect x="826" y="80" width="16" height="16" rx="3.5" fill="#161b22"/>
  <rect x="826" y="100" width="16" height="16" rx="3.5" fill="#0e4429"/>
  <rect x="826" y="120" width="16" height="16" rx="3.5" fill="#161b22"/>
  <rect x="826" y="140" width="16" height="16" rx="3.5" fill="#161b22"/>
  <rect x="826" y="160" width="16" height="16" rx="3.5" fill="#006d32"/>
  <rect x="826" y="180" width="16" height="16" rx="3.5" fill="#006d32"/>
  <rect x="826" y="200" width="16" height="16" rx="3.5" fill="#161b22"/>
  <rect x="846" y="80" width="16" height="16" rx="3.5" fill="#006d32"/>
  <rect x="846" y="100" width="16" height="16" rx="3.5" fill="#26a641" class="tw" style="animation-delay:2.0s"/>
  <rect x="846" y="120" width="16" height="16" rx="3.5" fill="#006d32"/>
  <rect x="846" y="140" width="16" height="16" rx="3.5" fill="#0e4429"/>
  <rect x="846" y="160" width="16" height="16" rx="3.5" fill="#161b22"/>
  <rect x="846" y="180" width="16" height="16" rx="3.5" fill="#39d353" class="tw" style="animation-delay:0.2s"/>
  <rect x="846" y="200" width="16" height="16" rx="3.5" fill="#161b22"/>
  <rect x="866" y="80" width="16" height="16" rx="3.5" fill="#26a641"/>
  <rect x="866" y="100" width="16" height="16" rx="3.5" fill="#26a641"/>
  <rect x="866" y="120" width="16" height="16" rx="3.5" fill="#006d32"/>
  <rect x="866" y="140" width="16" height="16" rx="3.5" fill="#39d353"/>
  <rect x="866" y="160" width="16" height="16" rx="3.5" fill="#006d32"/>
  <rect x="866" y="180" width="16" height="16" rx="3.5" fill="#26a641"/>
  <rect x="866" y="200" width="16" height="16" rx="3.5" fill="#26a641"/>
  <rect x="886" y="80" width="16" height="16" rx="3.5" fill="#006d32"/>
  <rect x="886" y="100" width="16" height="16" rx="3.5" fill="#161b22"/>
  <rect x="886" y="120" width="16" height="16" rx="3.5" fill="#161b22"/>
  <rect x="886" y="140" width="16" height="16" rx="3.5" fill="#161b22"/>
  <rect x="886" y="160" width="16" height="16" rx="3.5" fill="#161b22"/>
  <rect x="886" y="180" width="16" height="16" rx="3.5" fill="#161b22"/>
  <rect x="886" y="200" width="16" height="16" rx="3.5" fill="#161b22"/>
  <rect x="906" y="80" width="16" height="16" rx="3.5" fill="#161b22"/>
  <rect x="906" y="100" width="16" height="16" rx="3.5" fill="#006d32"/>
  <rect x="906" y="120" width="16" height="16" rx="3.5" fill="#0e4429"/>
  <rect x="906" y="140" width="16" height="16" rx="3.5" fill="#0e4429"/>
  <rect x="906" y="160" width="16" height="16" rx="3.5" fill="#161b22"/>
  <rect x="906" y="180" width="16" height="16" rx="3.5" fill="#161b22"/>
  <rect x="906" y="200" width="16" height="16" rx="3.5" fill="#39d353"/>
  <rect x="926" y="80" width="16" height="16" rx="3.5" fill="#006d32"/>
  <rect x="926" y="100" width="16" height="16" rx="3.5" fill="#161b22"/>
  <rect x="926" y="120" width="16" height="16" rx="3.5" fill="#26a641" class="tw" style="animation-delay:0.9s"/>
  <rect x="926" y="140" width="16" height="16" rx="3.5" fill="#39d353"/>
  <rect x="926" y="160" width="16" height="16" rx="3.5" fill="#006d32"/>
  <rect x="926" y="180" width="16" height="16" rx="3.5" fill="#006d32"/>
  <rect x="926" y="200" width="16" height="16" rx="3.5" fill="#26a641"/>
  <rect x="946" y="80" width="16" height="16" rx="3.5" fill="#161b22"/>
  <rect x="946" y="100" width="16" height="16" rx="3.5" fill="#161b22"/>
  <rect x="946" y="120" width="16" height="16" rx="3.5" fill="#161b22"/>
  <rect x="946" y="140" width="16" height="16" rx="3.5" fill="#161b22"/>
  <rect x="946" y="160" width="16" height="16" rx="3.5" fill="#161b22"/>
  <rect x="946" y="180" width="16" height="16" rx="3.5" fill="#39d353"/>
  <rect x="946" y="200" width="16" height="16" rx="3.5" fill="#161b22"/>
  <rect x="966" y="80" width="16" height="16" rx="3.5" fill="#006d32"/>
  <rect x="966" y="100" width="16" height="16" rx="3.5" fill="#0e4429"/>
  <rect x="966" y="120" width="16" height="16" rx="3.5" fill="#39d353"/>
  <rect x="966" y="140" width="16" height="16" rx="3.5" fill="#161b22"/>
  <rect x="966" y="160" width="16" height="16" rx="3.5" fill="#161b22"/>
  <rect x="966" y="180" width="16" height="16" rx="3.5" fill="#006d32"/>
  <rect x="966" y="200" width="16" height="16" rx="3.5" fill="#161b22"/>
  <rect x="986" y="80" width="16" height="16" rx="3.5" fill="#006d32"/>
  <rect x="986" y="100" width="16" height="16" rx="3.5" fill="#39d353"/>
  <rect x="986" y="120" width="16" height="16" rx="3.5" fill="#161b22"/>
  <rect x="986" y="140" width="16" height="16" rx="3.5" fill="#39d353"/>
  <rect x="986" y="160" width="16" height="16" rx="3.5" fill="#161b22"/>
  <rect x="986" y="180" width="16" height="16" rx="3.5" fill="#161b22"/>
  <rect x="986" y="200" width="16" height="16" rx="3.5" fill="#161b22"/>
  <rect x="1006" y="80" width="16" height="16" rx="3.5" fill="#006d32"/>
  <rect x="1006" y="100" width="16" height="16" rx="3.5" fill="#26a641"/>
  <rect x="1006" y="120" width="16" height="16" rx="3.5" fill="#161b22"/>
  <rect x="1006" y="140" width="16" height="16" rx="3.5" fill="#0e4429"/>
  <rect x="1006" y="160" width="16" height="16" rx="3.5" fill="#39d353"/>
  <rect x="1006" y="180" width="16" height="16" rx="3.5" fill="#39d353"/>
  <rect x="1006" y="200" width="16" height="16" rx="3.5" fill="#161b22"/>
  <rect x="1026" y="80" width="16" height="16" rx="3.5" fill="#26a641"/>
  <rect x="1026" y="100" width="16" height="16" rx="3.5" fill="#006d32"/>
  <rect x="1026" y="120" width="16" height="16" rx="3.5" fill="#161b22"/>
  <rect x="1026" y="140" width="16" height="16" rx="3.5" fill="#006d32"/>
  <rect x="1026" y="160" width="16" height="16" rx="3.5" fill="#161b22"/>
  <rect x="1026" y="180" width="16" height="16" rx="3.5" fill="#0e4429"/>
  <rect x="1026" y="200" width="16" height="16" rx="3.5" fill="#0e4429"/>
  <rect x="1046" y="80" width="16" height="16" rx="3.5" fill="#39d353"/>
  <rect x="1046" y="100" width="16" height="16" rx="3.5" fill="#161b22"/>
  <rect x="1046" y="120" width="16" height="16" rx="3.5" fill="#0e4429"/>
  <rect x="1046" y="140" width="16" height="16" rx="3.5" fill="#161b22"/>
  <rect x="1046" y="160" width="16" height="16" rx="3.5" fill="#39d353"/>
  <rect x="1046" y="180" width="16" height="16" rx="3.5" fill="#161b22"/>
  <rect x="1046" y="200" width="16" height="16" rx="3.5" fill="#006d32"/>
  <rect x="1066" y="80" width="16" height="16" rx="3.5" fill="#006d32"/>
  <rect x="1066" y="100" width="16" height="16" rx="3.5" fill="#161b22"/>
  <rect x="1066" y="120" width="16" height="16" rx="3.5" fill="#26a641"/>
  <rect x="1066" y="140" width="16" height="16" rx="3.5" fill="#26a641"/>
  <rect x="1066" y="160" width="16" height="16" rx="3.5" fill="#161b22"/>
  <rect x="1066" y="180" width="16" height="16" rx="3.5" fill="#0e4429"/>
  <rect x="1066" y="200" width="16" height="16" rx="3.5" fill="#161b22"/>
  <rect x="1086" y="80" width="16" height="16" rx="3.5" fill="#39d353"/>
  <rect x="1086" y="100" width="16" height="16" rx="3.5" fill="#26a641" class="tw" style="animation-delay:0.1s"/>
  <rect x="1086" y="120" width="16" height="16" rx="3.5" fill="#26a641"/>
  <rect x="1086" y="140" width="16" height="16" rx="3.5" fill="#161b22"/>
  <rect x="1086" y="160" width="16" height="16" rx="3.5" fill="#0e4429"/>
  <rect x="1086" y="180" width="16" height="16" rx="3.5" fill="#161b22"/>
  <rect x="1086" y="200" width="16" height="16" rx="3.5" fill="#26a641"/>
  <rect x="1106" y="80" width="16" height="16" rx="3.5" fill="#161b22"/>
  <rect x="1106" y="100" width="16" height="16" rx="3.5" fill="#0e4429"/>
  <rect x="1106" y="120" width="16" height="16" rx="3.5" fill="#006d32"/>
  <rect x="1106" y="140" width="16" height="16" rx="3.5" fill="#161b22"/>
  <rect x="1106" y="160" width="16" height="16" rx="3.5" fill="#26a641"/>
  <rect x="1106" y="180" width="16" height="16" rx="3.5" fill="#161b22"/>
  <rect x="1106" y="200" width="16" height="16" rx="3.5" fill="#006d32"/>
</svg>