<svg width="1200" height="170" viewBox="0 0 1200 170" fill="none" xmlns="http://www.w3.org/2000/svg"><g transform="translate(0,0)">
    <rect width="285" height="170" rx="14" fill="#0d1117"/>
    <rect x="0.5" y="0.5" width="284" height="169" rx="13.5" stroke="#30363d"/>
    <text x="28" y="52" font-family="-apple-system, BlinkMacSystemFont, 'Segoe UI', 'Noto Sans KR', sans-serif" font-size="13" font-weight="600" letter-spacing="2.5" fill="#8b949e">PRODUCTION API</text>
    <text x="28" y="102" font-family="-apple-system, BlinkMacSystemFont, 'Segoe UI', 'Noto Sans KR', sans-serif" font-size="40" font-weight="700" fill="#e6edf3">260+</text>
    <text x="28" y="136" font-family="-apple-system, BlinkMacSystemFont, 'Segoe UI', 'Noto Sans KR', sans-serif" font-size="14" fill="#8b949e">1인 설계 · 운영 실서비스</text>
    <rect x="28" y="148" width="36" height="4" rx="2" fill="#39d353"/>
  </g><g transform="translate(305,0)">
    <rect width="285" height="170" rx="14" fill="#0d1117"/>
    <rect x="0.5" y="0.5" width="284" height="169" rx="13.5" stroke="#30363d"/>
    <text x="28" y="52" font-family="-apple-system, BlinkMacSystemFont, 'Segoe UI', 'Noto Sans KR', sans-serif" font-size="13" font-weight="600" letter-spacing="2.5" fill="#8b949e">LLM PROVIDERS</text>
    <text x="28" y="102" font-family="-apple-system, BlinkMacSystemFont, 'Segoe UI', 'Noto Sans KR', sans-serif" font-size="40" font-weight="700" fill="#e6edf3">4개</text>
    <text x="28" y="136" font-family="-apple-system, BlinkMacSystemFont, 'Segoe UI', 'Noto Sans KR', sans-serif" font-size="14" fill="#8b949e">OpenAI · Gemini · Claude · Grok</text>
    <rect x="28" y="148" width="36" height="4" rx="2" fill="#39d353"/>
  </g><g transform="translate(610,0)">
    <rect width="285" height="170" rx="14" fill="#0d1117"/>
    <rect x="0.5" y="0.5" width="284" height="169" rx="13.5" stroke="#30363d"/>
    <text x="28" y="52" font-family="-apple-system, BlinkMacSystemFont, 'Segoe UI', 'Noto Sans KR', sans-serif" font-size="13" font-weight="600" letter-spacing="2.5" fill="#8b949e">DB TABLES</text>
    <text x="28" y="102" font-family="-apple-system, BlinkMacSystemFont, 'Segoe UI', 'Noto Sans KR', sans-serif" font-size="40" font-weight="700" fill="#e6edf3">54개</text>
    <text x="28" y="136" font-family="-apple-system, BlinkMacSystemFont, 'Segoe UI', 'Noto Sans KR', sans-serif" font-size="14" fill="#8b949e">결제 원장부터 LLM 로그까지</text>
    <rect x="28" y="148" width="36" height="4" rx="2" fill="#39d353"/>
  </g><g transform="translate(915,0)">
    <rect width="285" height="170" rx="14" fill="#0d1117"/>
    <rect x="0.5" y="0.5" width="284" height="169" rx="13.5" stroke="#30363d"/>
    <text x="28" y="52" font-family="-apple-system, BlinkMacSystemFont, 'Segoe UI', 'Noto Sans KR', sans-serif" font-size="13" font-weight="600" letter-spacing="2.5" fill="#8b949e">PROJECTS</text>
    <text x="28" y="102" font-family="-apple-system, BlinkMacSystemFont, 'Segoe UI', 'Noto Sans KR', sans-serif" font-size="40" font-weight="700" fill="#e6edf3">17건</text>
    <text x="28" y="136" font-family="-apple-system, BlinkMacSystemFont, 'Segoe UI', 'Noto Sans KR', sans-serif" font-size="14" fill="#8b949e">공공 · 금융 · 커머스 · AI</text>
    <rect x="28" y="148" width="36" height="4" rx="2" fill="#39d353"/>
  </g></svg>